<svg xmlns="http://www.w3.org/2000/svg" viewBox="0 0 240 60" fill="none">
  <!-- Background box -->
  <rect x="4" y="8" width="44" height="44" rx="10" fill="white" stroke="#E5E7EB" stroke-width="1.5"/>
  
  <!-- Rocket Icon (scaled and centered) -->
  <g transform="translate(10, 14) scale(1.3)">
    <path d="M9.315 7.584C12.195 3.883 16.695 1.5 21.75 1.5a.75.75 0 01.75.75c0 5.056-2.383 9.555-6.084 12.436h.001c-1.228 1.65-2.82 3.043-4.66 4.102l-1.554.894a.75.75 0 01-1.077-.925l1.625-3.525-3.525 1.625a.75.75 0 01-.925-1.077l.894-1.554c1.059-1.84 2.453-3.432 4.102-4.66zm-5.12 11.232a.75.75 0 00-.75.75v3a.75.75 0 00.75.75h3a.75.75 0 00.75-.75v-3a.75.75 0 00-.75-.75h-3z" fill="#FF5D01" fill-rule="evenodd" clip-rule="evenodd"/>
  </g>
  
  <!-- Pageel Text -->
  <text x="60" y="40" font-family="Inter, -apple-system, BlinkMacSystemFont, 'Segoe UI', Roboto, sans-serif" font-size="32" font-weight="700" fill="#050505">Pageel</text>
</svg>
